<?xml version="1.0" standalone="no"?>
<!DOCTYPE svg PUBLIC "-//W3C//DTD SVG 20010904//EN"
 "http://www.w3.org/TR/2001/REC-SVG-20010904/DTD/svg10.dtd">
<svg version="1.0" xmlns="http://www.w3.org/2000/svg"
 width="417.000000pt" height="218.000000pt" viewBox="0 0 417.000000 218.000000"
 preserveAspectRatio="xMidYMid meet">
<metadata>
Created by potrace 1.13, written by Peter Selinger 2001-2015
</metadata>
<g transform="translate(0.000000,218.000000) scale(0.100000,-0.100000)"
fill="#000000" stroke="none">
<path d="M125 2049 c-19 -17 -40 -47 -46 -68 -7 -25 -10 -288 -7 -888 3 -847
3 -852 24 -880 32 -43 67 -42 114 4 l39 39 -6 672 c-4 401 -3 672 3 672 5 0
20 -19 34 -42 14 -22 43 -60 66 -83 70 -73 132 -203 163 -345 45 -201 75 -300
126 -405 29 -60 71 -154 95 -207 49 -115 77 -148 120 -148 80 0 128 60 114
144 -4 28 -8 159 -8 291 1 220 3 245 22 299 12 33 22 73 22 90 0 17 18 65 40
106 22 41 40 81 40 89 0 19 92 201 102 201 4 0 10 -23 14 -50 6 -42 12 -53 35
-65 23 -12 30 -26 43 -82 37 -166 48 -313 55 -750 6 -418 7 -432 27 -460 28
-38 63 -41 103 -7 17 14 35 34 40 43 5 9 5 250 0 536 -7 461 -10 535 -29 650
-12 72 -27 175 -35 230 -7 55 -20 123 -28 150 -8 28 -18 67 -21 87 -4 21 -18
51 -32 68 -22 25 -33 30 -70 30 -81 0 -137 -47 -186 -155 -15 -33 -60 -132
-101 -220 -128 -276 -146 -320 -161 -392 -16 -74 -34 -123 -46 -123 -4 0 -13
7 -20 15 -7 9 -22 14 -32 13 -25 -4 -56 79 -68 179 -5 41 -20 98 -34 129 -14
31 -26 64 -26 74 0 10 -19 46 -42 81 -23 35 -68 104 -100 152 -32 49 -58 94
-58 101 0 22 -86 190 -114 224 -25 29 -33 32 -82 32 -45 0 -58 -5 -89 -31z"/>
<path d="M2960 1492 c-68 -28 -128 -69 -199 -136 -121 -117 -151 -224 -151
-551 0 -233 2 -240 74 -345 20 -29 39 -64 42 -77 7 -25 3 -35 -41 -113 -27
-48 -33 -108 -13 -128 19 -19 96 -15 128 8 15 10 41 49 59 86 24 51 35 65 49
61 89 -28 254 -68 316 -76 43 -6 153 -11 245 -11 l168 0 79 40 c62 32 102 63
186 147 59 59 112 118 117 132 14 38 32 225 38 400 6 170 6 171 -58 171 -57 0
-109 -66 -109 -139 0 -102 -33 -348 -52 -393 -36 -85 -145 -160 -256 -178 -67
-11 -225 3 -337 31 -65 16 -86 26 -112 54 -18 19 -36 35 -42 35 -5 0 -22 5
-36 10 l-27 10 32 58 c18 31 52 84 75 117 24 33 65 106 93 161 28 56 62 117
74 136 13 19 53 97 88 174 35 76 75 155 88 174 32 48 28 105 -11 134 -27 20
-43 21 -245 23 -190 3 -223 1 -262 -15z m202 -157 c9 -4 13 -16 10 -34 -3 -23
2 -33 23 -47 39 -25 30 -58 -53 -211 -39 -71 -89 -162 -111 -203 -52 -95 -112
-174 -135 -178 -9 -2 -23 4 -30 14 -9 11 -21 15 -35 11 -38 -10 -51 35 -51
180 0 144 28 311 59 353 25 35 110 99 146 109 34 10 156 14 177 6z"/>
<path d="M1664 326 c-65 -28 -97 -113 -56 -148 11 -11 56 -19 137 -27 198 -18
240 -21 496 -27 l246 -6 35 31 c56 49 62 107 12 129 -14 7 -66 12 -117 12 -95
0 -252 11 -513 36 -183 17 -200 17 -240 0z"/>
</g>
</svg>
